<svg xmlns="http://www.w3.org/2000/svg" viewBox="0 0 500 500"><defs><style>.cls-1{fill:#676ab1;}.cls-2{font-size:12px;fill:#231f20;font-family:MyriadPro-Regular, Myriad Pro;}.cls-3{fill:#f1f2f2;}</style></defs><g id="Twitter"><rect class="cls-1" width="500" height="500" rx="172.79"/></g><g id="Internet"><text class="cls-2" transform="translate(250 250)">172.787 pt</text><path class="cls-3" d="M353.38,365.08c-10,0-20.35-.41-30.94-1.23a134.87,134.87,0,0,1-192.15-51.54,377.78,377.78,0,0,1-43.17-24.18,167.26,167.26,0,0,0,284.69,76.46C365.88,364.91,359.72,365.08,353.38,365.08ZM416.6,235.47a161.6,161.6,0,0,0-3.72-23.58A167.3,167.3,0,0,0,93.72,190.34a163.63,163.63,0,0,0-8.84,33A167,167,0,0,0,82.75,250q0,7.37.65,14.52a304.93,304.93,0,0,0,37.06,23.41A133.81,133.81,0,0,1,115,250c0-.9,0-1.83,0-2.73a130.12,130.12,0,0,1,1.81-19.56,133.43,133.43,0,0,1,15-42.93,134.91,134.91,0,0,1,237.85,2.92A134.4,134.4,0,0,1,385,250c0,.9,0,1.83,0,2.73a131.44,131.44,0,0,1-1.81,19.56,133.92,133.92,0,0,1-6.73,25.1,131.42,131.42,0,0,1-8.27,17.84,135.5,135.5,0,0,1-25.08,32.46c3.49.13,6.95.17,10.33.17A291.59,291.59,0,0,0,387,346a165.41,165.41,0,0,0,19.32-36.38,162.92,162.92,0,0,0,8.84-33A167,167,0,0,0,417.25,250Q417.25,242.66,416.6,235.47Z"/><path class="cls-3" d="M416.6,235.47a161.6,161.6,0,0,0-3.72-23.58,377.78,377.78,0,0,0-43.17-24.18A134.4,134.4,0,0,1,385,250c0,.9,0,1.83,0,2.73a131.44,131.44,0,0,1-1.81,19.56,0,0,0,0,0,0,0c11.36,8,18.37,14.67,22.63,19.51-5.48,1.83-15,4.24-29.38,5.57-6.61.6-14.25,1-23,1-33.8,0-72.54-5.59-112-16.2-49.43-13.27-93.64-32.63-124.49-54.47a0,0,0,0,0,0,0c-11.36-8-18.35-14.67-22.63-19.53,5.48-1.81,15-4.22,29.38-5.53a133.28,133.28,0,0,1,8.26-17.85,136.13,136.13,0,0,1,45.7-48.64c-10.59-.8-20.94-1.21-30.94-1.21q-9.56,0-18.46.5A166.16,166.16,0,0,0,113,154c-39.95,4.67-67.35,18.18-73.1,39.63s11.21,46.87,43.46,70.92a304.93,304.93,0,0,0,37.06,23.41c30.21,16.35,67.19,31.06,108.08,42s80.18,16.78,114.51,17.73c3.49.13,6.95.17,10.33.17A291.59,291.59,0,0,0,387,346c40-4.67,67.35-18.18,73.1-39.62S448.87,259.52,416.6,235.47ZM71.09,202c.35-.92,4-5.25,15.88-9.5,1.93-.71,4.19-1.42,6.75-2.13a163.63,163.63,0,0,0-8.84,33C73,211.27,70.83,203.41,71.09,202ZM428.91,298c-.35.92-4,5.27-15.88,9.5-1.93.69-4.17,1.42-6.75,2.13a162.92,162.92,0,0,0,8.84-33C427,288.75,429.17,296.59,428.91,298Z"/><path class="cls-3" d="M416.6,235.47a304,304,0,0,0-37.06-23.39A133.87,133.87,0,0,1,385,250c0,.9,0,1.83,0,2.73,2.81,1.81,5.52,3.66,8.17,5.53a158.68,158.68,0,0,1,22,18.37C427,288.75,429.17,296.59,428.91,298c-.35.92-4,5.27-15.88,9.5-1.93.69-4.17,1.42-6.75,2.13-8.67,2.41-21.09,4.72-38.15,5.58-4.58.23-9.48.36-14.75.36-35.28,0-75.55-5.81-116.49-16.8-47.2-12.67-90-30.8-121.83-51.52q-4.22-2.72-8.17-5.53a162.36,162.36,0,0,1-22-18.37c-11.87-12.11-14-20-13.79-21.41.35-.92,4-5.25,15.88-9.5,1.93-.71,4.19-1.42,6.75-2.13,8.69-2.39,21.08-4.69,38.14-5.55A135.26,135.26,0,0,1,157,152.32c-3.49-.13-6.95-.17-10.33-.17A291.59,291.59,0,0,0,113,154c-39.95,4.67-67.35,18.18-73.1,39.63s11.21,46.87,43.46,70.92a304.93,304.93,0,0,0,37.06,23.41c30.21,16.35,67.19,31.06,108.08,42s80.18,16.78,114.51,17.73c3.49.13,6.95.17,10.33.17A291.59,291.59,0,0,0,387,346c40-4.67,67.35-18.18,73.1-39.62S448.87,259.52,416.6,235.47Z"/></g></svg>